<?xml version="1.0" encoding="utf-8"?>
<!-- Generator: Adobe Illustrator 18.1.1, SVG Export Plug-In . SVG Version: 6.00 Build 0)  -->
<svg version="1.1" id="menu-bar" xmlns="http://www.w3.org/2000/svg" xmlns:xlink="http://www.w3.org/1999/xlink" x="0px" y="0px"
	 viewBox="0 0 40 40" enable-background="new 0 0 40 40" xml:space="preserve">
<path fill="#377F5E" d="M36.5,11.7h-33C2.7,11.7,2,11,2,10.2v0c0-0.8,0.7-1.5,1.5-1.5h33c0.8,0,1.5,0.7,1.5,1.5v0
	C38,11,37.3,11.7,36.5,11.7z"/>
<path fill="#377F5E" d="M36.5,21.7h-33C2.7,21.7,2,21,2,20.2v0c0-0.8,0.7-1.5,1.5-1.5h33c0.8,0,1.5,0.7,1.5,1.5v0
	C38,21,37.3,21.7,36.5,21.7z"/>
<path fill="#377F5E" d="M36.5,31.7h-33C2.7,31.7,2,31,2,30.2v0c0-0.8,0.7-1.5,1.5-1.5h33c0.8,0,1.5,0.7,1.5,1.5v0
	C38,31,37.3,31.7,36.5,31.7z"/>
</svg>
